<svg width="95" height="91" viewBox="0 0 95 91" fill="none" xmlns="http://www.w3.org/2000/svg">
<g clip-path="url(#clip0_503_1545)">
<path d="M47.5 0C38.1054 0 28.9218 2.66853 21.1104 7.66813C13.2991 12.6677 7.21091 19.7739 3.61574 28.0879C0.0205811 36.4019 -0.920077 45.5505 0.912721 54.3766C2.74552 63.2027 7.26945 71.3101 13.9124 77.6734C20.5554 84.0367 29.0191 88.3701 38.2332 90.1257C47.4473 91.8814 56.998 90.9803 65.6775 87.5365C74.357 84.0927 81.7755 78.2609 86.9948 70.7785C92.2142 63.296 95 54.4991 95 45.5C94.9864 33.4367 89.9776 21.8711 81.0726 13.3411C72.1675 4.81097 60.0936 0.0130474 47.5 0ZM81.7673 26.5417H68.9977C66.1359 20.1849 62.3644 14.2407 57.7917 8.88008C67.9011 11.5106 76.5176 17.8579 81.7673 26.5417ZM65.3125 45.5C65.284 49.3599 64.6529 53.194 63.4402 56.875H31.5598C30.3471 53.194 29.7161 49.3599 29.6875 45.5C29.7161 41.6401 30.3471 37.806 31.5598 34.125H63.4402C64.6529 37.806 65.284 41.6401 65.3125 45.5ZM34.7304 64.4583H60.2696C56.9075 70.8145 52.6068 76.6734 47.5 81.8545C42.3933 76.6734 38.0925 70.8145 34.7304 64.4583ZM34.7304 26.5417C38.0925 20.1855 42.3933 14.3266 47.5 9.1455C52.6068 14.3266 56.9075 20.1855 60.2696 26.5417H34.7304ZM37.2084 8.88008C32.6367 14.2414 28.8652 20.1855 26.0023 26.5417H13.2327C18.4825 17.8579 27.0989 11.5106 37.2084 8.88008ZM9.73752 34.125H23.3225C21.2537 41.5789 21.2537 49.4211 23.3225 56.875H9.73752C7.30984 49.4699 7.30984 41.5301 9.73752 34.125ZM13.2327 64.4583H26.0023C28.8641 70.8151 32.6356 76.7593 37.2084 82.1199C27.0989 79.4894 18.4825 73.1421 13.2327 64.4583ZM57.7917 82.1199C62.3634 76.7586 66.1348 70.8145 68.9977 64.4583H81.7673C76.5176 73.1421 67.9011 79.4894 57.7917 82.1199ZM85.2625 56.875H71.6775C73.7463 49.4211 73.7463 41.5789 71.6775 34.125H85.2625C87.6902 41.5301 87.6902 49.4699 85.2625 56.875Z" fill="#4200FF"/>
</g>
<defs>
<clipPath id="clip0_503_1545">
<rect width="95" height="91" fill="white"/>
</clipPath>
</defs>
</svg>
