<svg width="98" height="110" viewBox="0 0 98 110" fill="none" xmlns="http://www.w3.org/2000/svg">
<path d="M36.5 41.25C36.5 40.0344 36.9302 38.8686 37.696 38.0091C38.4618 37.1496 39.5004 36.6667 40.5833 36.6667H44.6667V32.0833C44.6667 30.8678 45.0969 29.702 45.8626 28.8424C46.6284 27.9829 47.667 27.5 48.75 27.5C49.833 27.5 50.8716 27.9829 51.6374 28.8424C52.4031 29.702 52.8333 30.8678 52.8333 32.0833V36.6667H56.9167C57.9996 36.6667 59.0382 37.1496 59.804 38.0091C60.5698 38.8686 61 40.0344 61 41.25C61 42.4656 60.5698 43.6314 59.804 44.4909C59.0382 45.3504 57.9996 45.8333 56.9167 45.8333H52.8333V50.4167C52.8333 51.6322 52.4031 52.798 51.6374 53.6576C50.8716 54.5171 49.833 55 48.75 55C47.667 55 46.6284 54.5171 45.8626 53.6576C45.0969 52.798 44.6667 51.6322 44.6667 50.4167V45.8333H40.5833C39.5004 45.8333 38.4618 45.3504 37.696 44.4909C36.9302 43.6314 36.5 42.4656 36.5 41.25ZM65.0833 64.1667H32.4167C31.3337 64.1667 30.2951 64.6496 29.5293 65.5091C28.7635 66.3686 28.3333 67.5344 28.3333 68.75C28.3333 69.9656 28.7635 71.1314 29.5293 71.9909C30.2951 72.8504 31.3337 73.3333 32.4167 73.3333H65.0833C66.1663 73.3333 67.2049 72.8504 67.9707 71.9909C68.7365 71.1314 69.1667 69.9656 69.1667 68.75C69.1667 67.5344 68.7365 66.3686 67.9707 65.5091C67.2049 64.6496 66.1663 64.1667 65.0833 64.1667ZM48.75 82.5H32.4167C31.3337 82.5 30.2951 82.9829 29.5293 83.8424C28.7635 84.702 28.3333 85.8678 28.3333 87.0833C28.3333 88.2989 28.7635 89.4647 29.5293 90.3242C30.2951 91.1838 31.3337 91.6667 32.4167 91.6667H48.75C49.833 91.6667 50.8716 91.1838 51.6374 90.3242C52.4031 89.4647 52.8333 88.2989 52.8333 87.0833C52.8333 85.8678 52.4031 84.702 51.6374 83.8424C50.8716 82.9829 49.833 82.5 48.75 82.5ZM85.5 32.0833V87.0833C85.4935 93.159 83.3404 98.9837 79.5129 103.28C75.6855 107.576 70.4962 109.993 65.0833 110H32.4167C27.0038 109.993 21.8145 107.576 17.9871 103.28C14.1596 98.9837 12.0065 93.159 12 87.0833V32.0833C12.0065 26.0077 14.1596 20.183 17.9871 15.8868C21.8145 11.5907 27.0038 9.17394 32.4167 9.16667H33.1149C33.9625 6.48767 35.5278 4.16859 37.5959 2.52745C39.6641 0.886307 42.1339 0.00346843 44.6667 0L52.8333 0C55.3661 0.00346843 57.8359 0.886307 59.9041 2.52745C61.9722 4.16859 63.5375 6.48767 64.3851 9.16667H65.0833C70.4962 9.17394 75.6855 11.5907 79.5129 15.8868C83.3404 20.183 85.4935 26.0077 85.5 32.0833ZM77.3333 32.0833C77.3333 28.4366 76.0427 24.9392 73.7454 22.3606C71.4481 19.782 68.3322 18.3333 65.0833 18.3333H61C59.917 18.3333 58.8784 17.8504 58.1126 16.9909C57.3469 16.1314 56.9167 14.9656 56.9167 13.75C56.9167 12.5344 56.4865 11.3686 55.7207 10.5091C54.9549 9.64955 53.9163 9.16667 52.8333 9.16667H44.6667C43.5837 9.16667 42.5451 9.64955 41.7793 10.5091C41.0135 11.3686 40.5833 12.5344 40.5833 13.75C40.5833 14.9656 40.1531 16.1314 39.3874 16.9909C38.6216 17.8504 37.583 18.3333 36.5 18.3333H32.4167C29.1678 18.3333 26.0519 19.782 23.7546 22.3606C21.4573 24.9392 20.1667 28.4366 20.1667 32.0833V87.0833C20.1667 90.7301 21.4573 94.2274 23.7546 96.8061C26.0519 99.3847 29.1678 100.833 32.4167 100.833H65.0833C68.3322 100.833 71.4481 99.3847 73.7454 96.8061C76.0427 94.2274 77.3333 90.7301 77.3333 87.0833V32.0833Z" fill="#4200FF"/>
</svg>
