<svg width="93" height="84" viewBox="0 0 93 84" fill="none" xmlns="http://www.w3.org/2000/svg">
<g clip-path="url(#clip0_503_1547)">
<path d="M78.8718 53.718L88.1563 55.8845C88.4779 55.9615 88.8073 55.9965 89.125 55.9965C90.8494 55.9965 92.4226 54.95 92.876 53.3715C93.4108 51.5025 92.1669 49.5915 90.0938 49.1085L80.9371 46.97C81.2239 45.3495 81.375 43.687 81.375 41.993C81.375 40.299 81.2239 38.64 80.9371 37.016L90.0938 34.8775C92.1669 34.3945 93.4108 32.4835 92.876 30.6145C92.3374 28.7455 90.2294 27.6045 88.1563 28.1015L78.8718 30.268C77.5891 27.391 75.8531 24.724 73.7374 22.337L79.7785 16.8805C80.8751 17.269 82.0686 17.486 83.3164 17.486C88.66 17.486 93.0039 13.5625 93.0039 8.73603C93.0039 3.90953 88.66 -0.0139716 83.3164 -0.0139716C77.9728 -0.0139716 73.6289 3.90953 73.6289 8.73603C73.6289 9.86303 73.8691 10.941 74.2993 11.9315L68.2581 17.388C65.6154 15.477 62.6626 13.909 59.4774 12.7505L61.876 4.36103C62.4108 2.49203 61.1669 0.581028 59.0938 0.0980284C57.0051 -0.405972 54.9088 0.738528 54.3701 2.61103L52.0025 10.8815C50.2084 10.6225 48.3678 10.486 46.4961 10.486C44.6245 10.486 42.7839 10.6225 40.9898 10.8815L38.6221 2.61103C38.0874 0.738528 35.9794 -0.402472 33.8985 0.0980284C31.8254 0.581028 30.5815 2.49203 31.1163 4.36103L33.5149 12.7505C30.3296 13.909 27.3769 15.477 24.7341 17.388L18.693 11.9315C19.1231 10.941 19.3634 9.86303 19.3634 8.73603C19.3634 3.90953 15.0195 -0.0139716 9.67588 -0.0139716C4.33225 -0.0139716 0 3.92353 0 8.75003C0 13.5765 4.34388 17.5 9.6875 17.5C10.9353 17.5 12.1288 17.283 13.2254 16.8945L19.2665 22.351C17.1508 24.738 15.4148 27.405 14.1321 30.282L4.84763 28.1155C2.77838 27.615 0.662625 28.7595 0.127875 30.6285C-0.406875 32.4975 0.837 34.4085 2.91013 34.8915L12.0668 37.03C11.78 38.6505 11.6289 40.313 11.6289 42.007C11.6289 43.7185 11.7839 45.402 12.0745 47.04L2.93338 49.112C0.856375 49.581 -0.403 51.485 0.120125 53.3575C0.561875 54.9465 2.139 56.007 3.875 56.007C4.18888 56.007 4.50663 55.972 4.82438 55.902L14.1631 53.7845C15.4419 56.6405 17.1701 59.2865 19.2704 61.6595L13.2293 67.116C12.1326 66.7275 10.9391 66.5105 9.69138 66.5105C4.34775 66.5105 0.003875 70.434 0.003875 75.2605C0.003875 80.087 4.34775 84.0105 9.69138 84.0105C15.035 84.0105 19.3789 80.087 19.3789 75.2605C19.3789 74.1335 19.1386 73.0555 18.7085 72.065L24.7496 66.6085C27.3924 68.5195 30.3451 70.0875 33.5304 71.246L31.1318 79.6355C30.597 81.5045 31.8409 83.4155 33.914 83.8985C34.2395 83.9755 34.565 84.0105 34.8866 84.0105C36.611 84.0105 38.1842 82.964 38.6376 81.3855L41.0053 73.115C42.7994 73.374 44.64 73.5105 46.5116 73.5105C48.3833 73.5105 50.2239 73.374 52.018 73.115L54.3856 81.3855C54.839 82.964 56.4084 84.0105 58.1366 84.0105C58.4583 84.0105 58.7838 83.9755 59.1093 83.8985C61.1824 83.4155 62.4263 81.5045 61.8915 79.6355L59.4929 71.246C62.6781 70.0875 65.6309 68.5195 68.2736 66.6085L74.3148 72.065C73.8846 73.0555 73.6444 74.1335 73.6444 75.2605C73.6444 80.087 77.9883 84.0105 83.3319 84.0105C88.6755 84.0105 93.0194 80.087 93.0194 75.2605C93.0194 70.434 88.6755 66.5105 83.3319 66.5105C82.0841 66.5105 80.8906 66.7275 79.794 67.116L73.7529 61.6595C75.8686 59.2725 77.6046 56.6055 78.8873 53.7285L78.8718 53.718ZM46.5 24.374C49.7085 24.374 52.3125 26.726 52.3125 29.624C52.3125 32.522 49.7085 34.874 46.5 34.874C43.2915 34.874 40.6875 32.522 40.6875 29.624C40.6875 26.726 43.2915 24.374 46.5 24.374ZM26.9855 42C26.9855 39.102 29.5895 36.75 32.798 36.75C36.0065 36.75 38.6105 39.102 38.6105 42C38.6105 44.898 36.0065 47.25 32.798 47.25C29.5895 47.25 26.9855 44.898 26.9855 42ZM40.6875 54.376C40.6875 51.478 43.2915 49.126 46.5 49.126C49.7085 49.126 52.3125 51.478 52.3125 54.376C52.3125 57.274 49.7085 59.626 46.5 59.626C43.2915 59.626 40.6875 57.274 40.6875 54.376ZM54.3895 42C54.3895 39.102 56.9935 36.75 60.202 36.75C63.4105 36.75 66.0145 39.102 66.0145 42C66.0145 44.898 63.4105 47.25 60.202 47.25C56.9935 47.25 54.3895 44.898 54.3895 42Z" fill="white"/>
</g>
<defs>
<clipPath id="clip0_503_1547">
<rect width="93" height="84" fill="white"/>
</clipPath>
</defs>
</svg>
